# xmcd
# 
# Track frame offsets:
#     218
#     18989
#     59019
#     76050
#     99674
#     134106
#     151662
#     174691
# 
# Disc length: 2564
# 
# Revision: 1
# Processed by: cddbd v1.5.2PL0 Copyright (c) Steve Scherf et al.
# Submitted via: BonkEnc v1.0.8
# 
DISCID=630a0208
DTITLE=Graham Collier - New Conditions
DYEAR=1976
DGENRE=Big Band
TTITLE0=Introduction
TTITLE1=Part 1 and 2
TTITLE2=Part 3
TTITLE3=Part 4
TTITLE4=Part 5 and 6
TTITLE5=Part 7
TTITLE6=Part 8
TTITLE7=Finale
EXTD=YEAR: 1976
EXTT0=
EXTT1=
EXTT2=
EXTT3=
EXTT4=
EXTT5=
EXTT6=
EXTT7=
PLAYORDER=
